<svg xmlns="http://www.w3.org/2000/svg" viewBox="0 0 1200 4500"><defs><style>.cls-1{fill:#f59552;}.cls-2{fill:#777;}.cls-3{fill:#de884b;}.cls-4{fill:#f5f5f5;}</style></defs><g id="Layer_2" data-name="Layer 2"><path class="cls-1" d="M147.75.7c.31,36.45.54,91.55-.16,158.76-.8,76.61-2.43,133.35-3.05,155.57C139,514.59,136.18,614.37,137.05,703c1.6,162.08-11.82,324.2-7,486.22a15.36,15.36,0,0,1-.53,4.73c-1.45,5.29-5.47,8.75-6.95,10-4.06,3.4-6.05,3-7.67,5.78s-1.09,6.07-.89,7.36c2.82,17.43,1.08,35.28,1.85,52.91,1.1,25.28-1.37,29.9,4.12,37.83,3.35,4.84,7.33,7.52,9.68,14.72,2.68,8.15,1,15.23,0,20.34-2.62,12.84-2,26.16-4.31,39.06-4.44,24.85-2.72,57.59-1.87,90.83q0,.1-1.38,182.21s-.22,29.08,1,73c.52,18.23.82,21.67,1.07,24.18,2.83,28.13,9.22,36.3,11.05,63.07,0,.48,0-.18.36,24.88.43,29.39.53,32.3-.71,38.2-3,14.36-7,13.52-9.27,28.38-1.4,9.34-1.23,18.92-1.07,25.59.18,7.38.69,10.67.61,19.69-.07,8.36-.54,8.84-.59,16.76-.07,12.45,0,18.75,2.53,22.58,4.67,6.94,10.76,4.24,15.27,11,3.06,4.62,2,8.53,1.78,22.78-.12,7.12.43,14.25.36,21.37-.16,16.82.19,33.65,0,50.47-.66,58.29,15.45,669.41,17.94,720.47a88.74,88.74,0,0,1,0,10.28c-.9,15.1-5.32,21.54-7.6,34.11-.82,4.47-.07,2.63-.48,26.16-.32,18.62-.81,21.33-1,35.05-.16,15.76.35,27.13.48,30.83.59,17.29-.35,62.12-6.18,176.15h926.73c-4.45-101.15-9.8-257.15-10-449.95-.12-127.8,2.15-146.47,2.85-316.78,1.15-278.79-4.72-280.38-2.88-496.2,2.07-243.6,9.61-249.38,8.23-454.51-.39-57.23-1.53-139.48.35-259.66,1.7-107.83,4.9-187.14,5.71-208.15,4.55-119,8.62-370.39,7.13-944.75Z"/></g><g id="Layer_3" data-name="Layer 3"><path class="cls-2" d="M98.88,3198.85H61.3s-39.77-5-39.77,39.76v253.95s3.13,40.08,38.67,58.87,497.1,223,497.1,223,12.84,3.13,12.84,12.84v21.6H633.7v-37.57c-.47-6.89-2.2-18.21-9.39-29-8.36-12.55-20.12-18.45-25.68-21.08-24-11.37-227.91-102.2-507.9-225.46,0,0-8.14-5-8.14-12.52V3271.63s-2.08-11.13,7.24-11.13h9.32Z"/><rect class="cls-3" x="98.88" y="3068.58" width="1015.79" height="319.39" rx="57.78"/><path class="cls-4" d="M1091.7,3328.27a65.29,65.29,0,0,1-15.86-15.86c-8.88-12.67-10.77-25.12-11.69-31.73a86.1,86.1,0,0,1,.83-27.56c3.1-16.42,8.56-20.34,12.53-32.56.68-2.11,11.76-37.81-7.72-58.35-17.17-18.12-46.7-12.46-49.9-11.79-7,4.94-18.17,11.33-32.58,12.72-23,2.23-29.43-10.63-54.8-10.94-22.65-.27-25.11,9.87-50.38,10.33-18,.33-18.8-4.76-44.59-9.32-38.94-6.87-45.57,3.24-81.15-4.41-22.74-4.88-21.31-3.74-43.77-13.45-10-4.31-60.13-5-60.13-5a180.78,180.78,0,0,1-56,11.69c-17,.77-33.39,1.69-51.77-5.85-17.47-7.17-18.77-14.52-32.87-20.35-12-5-31-7.89-60.65,3.65,0,0-73.43,22.36-149.47,0-14.19-4.17-57.61,16.7-126.08,0-10.83-2.64-56.78,1.67-59.29,29.23s0,185.37,0,185.37,2.51,28.39,39.25,37.57,894.29,0,894.29,0S1091.7,3363.34,1091.7,3328.27Z"/><path class="cls-2" d="M641.84,4505.22H570.45a47,47,0,0,1-47-47q6.56-138.7,7.1-277.43.63-163.74-7.1-327.53a48,48,0,0,1,13.76-33.22,46.81,46.81,0,0,1,33.21-13.75h71.39a47,47,0,0,1,47,47c-5.55,102.36-8.58,210.24-8.16,323.15.36,97.91,3.29,192,8.16,281.81.06,3.24,0,19.28-12.52,32.57C662.62,4505.29,644.73,4505.27,641.84,4505.22Z"/><path class="cls-3" d="M636.35,4494H575.94c-22,0-39.74-20.35-39.74-45.46q5.55-134.23,6-268.48.54-158.46-6-317c0-3,.26-19.13,11.64-32.14,7.19-8.22,17.13-13.31,28.1-13.31h60.41c21.95,0,39.74,20.35,39.74,45.45-4.7,99.06-7.26,203.46-6.9,312.74.3,94.74,2.78,185.75,6.9,272.71,0,3.14,0,18.66-10.6,31.52A37.44,37.44,0,0,1,636.35,4494Z"/></g></svg>