<svg id="Layer_2" data-name="Layer 2" xmlns="http://www.w3.org/2000/svg" viewBox="0 0 4000 1000"><defs><style>.cls-1{fill:#f59552;}</style></defs><path class="cls-1" d="M4000,59.67C3805.79,69.29,3535.62,79,3211.52,79c-168.52,0-321.6-2.66-627.72-9.38C1887.49,54.32,1917.69,50.16,1773.93,53c-110.72,2.16-290.15,7.79-555.83,5.18-112.35-1.11-97.47-2.28-174.59-2.61C753.92,54.32,636.45,69.62,423.23,72.39,324.84,73.66,179.35,72.57,0,59.67V765.76A484,484,0,0,0,123.67,793c145.47,12.23,220.5-50.38,268.4-7.82,45.64,40.56,20.66,130.6,67.75,145.92,2.88.94,14.37,4.68,26.05,0,38.89-15.56,28.29-85.17,52.12-130.29,48.48-91.76,246.79-81.71,430-70.63,138.65,8.38,140.29,15.3,242.28,26.33,266.84,28.88,304.08-64,612.36-65.14,219.4-.81,221,46.16,398.74,25.61,63.27-7.31,186.86-27.57,291.38-10.41,56.65,9.3,75.7,24.34,144.73,28.8,29.88,1.93,50.48.6,66.15,16.34,24.57,24.68,17.37,71.54,40.76,77.63a17,17,0,0,0,9.7,0c23.2-7.53,11.58-68.65,36.88-79.58a22.79,22.79,0,0,1,17.47,0c35.65,15.63-2.73,130.68,36.87,151.39.56.29,10.67,5.4,21.35,1.94,37.47-12.1.85-115.39,44.64-163,45.76-49.77,154-19.4,170.76-14.81,41,11.21,39.58,21.63,74.3,31.33,90.62,25.31,131.79-37,207.13-28.73,113.72,12.48,142.42,170,214.77,156.88,58.63-10.66,46.73-125.5,124.92-150.49,46-14.72,72.46,17.91,177.66,23.63a540.88,540.88,0,0,0,99.15-3.72"/></svg>