<svg id="Layer_2" data-name="Layer 2" xmlns="http://www.w3.org/2000/svg" viewBox="0 0 1200 3250"><defs><style>.cls-1{fill:#f59552;}</style></defs><path class="cls-1" d="M147.75.7c.31,36.45.54,91.55-.16,158.76-.8,76.61-2.43,133.35-3.05,155.57C139,514.59,136.18,614.37,137.05,703c1.6,162.08-11.82,324.2-7,486.22a15.36,15.36,0,0,1-.53,4.73c-1.45,5.29-5.47,8.75-6.95,10-4.06,3.4-6.05,3-7.67,5.78s-1.09,6.07-.89,7.36c2.82,17.43,1.08,35.28,1.85,52.91,1.1,25.28-1.37,29.9,4.12,37.83,3.35,4.84,7.33,7.52,9.68,14.72,2.68,8.15,1,15.23,0,20.34-2.62,12.84-2,26.16-4.31,39.06-4.44,24.85-2.72,57.59-1.87,90.83q0,.1-1.38,182.21s-.22,29.08,1,73c.52,18.23.82,21.67,1.07,24.18,2.83,28.13,9.22,36.3,11.05,63.07,0,.48,0-.18.36,24.88.43,29.39.53,32.3-.71,38.2-3,14.36-7,13.52-9.27,28.38-1.4,9.34-1.23,18.92-1.07,25.59.18,7.38.69,10.67.61,19.69-.07,8.36-.54,8.84-.59,16.76-.07,12.45,0,18.75,2.53,22.58,4.67,6.94,10.76,4.24,15.27,11,3.06,4.62,2,8.53,1.78,22.78-.12,7.12.43,14.25.36,21.37-.16,16.82.19,33.65,0,50.47-.66,58.29,15.45,669.41,17.94,720.47a88.74,88.74,0,0,1,0,10.28c-.9,15.1-5.32,21.54-7.6,34.11-.82,4.47-.07,2.63-.48,26.16-.32,18.62-.81,21.33-1,35.05-.08,8,0,14.88.14,20.19.14,5.84.32,10.3.34,10.64.88,18.39,86.42,53.85,128.66,94.08,51.28,48.83,46.82,112.41,69.65,111.49,24.49-1,32-74.29,54.18-74.14,27.67.18,35.05,114.74,76.14,119.94,22.45,2.84,30.15-30.09,69.28-37.25,37.43-6.85,49.93,19.7,79.84,17.11,67.08-5.8,87.16-146.45,131.17-144,33.7,1.87,43.81,85.56,72.71,84.12,28.32-1.41,25.16-82,88.4-125.47,35.76-24.54,46.72-5.6,77-27.09,63.33-44.95,63.44-162,63.55-292.59,0-1,.06-12.28,0-27.76,0-10,0-24.13.21-46,.59-70.55,2.06-111.71,2.6-243,1.15-278.79-4.72-280.38-2.88-496.2,2.07-243.6,9.61-249.38,8.23-454.51-.39-57.23-1.53-139.48.35-259.66,1.7-107.83,4.9-187.14,5.71-208.15,4.55-119,8.62-370.39,7.13-944.75Z"/></svg>