<svg id="Layer_1" data-name="Layer 1" xmlns="http://www.w3.org/2000/svg" viewBox="0 0 4600 3000"><defs><style>.cls-1{fill:#777;}.cls-2{fill:#f59552;}.cls-3{fill:#f5f5f5;}</style></defs><path class="cls-1" d="M1645.48,400.64h-64.16s-67.9-8.55-67.9,67.9V902.15s5.34,68.43,66,100.51,848.76,380.68,848.76,380.68,21.92,5.34,21.92,21.92v36.89h108.53V1378c-.8-11.76-3.75-31.08-16-49.54-14.27-21.44-34.34-31.5-43.84-36-40.92-19.41-389.14-174.49-867.21-385,0,0-13.9-8.56-13.9-21.39V524.92s-3.56-19,12.36-19H1646Z"/><rect class="cls-2" x="1645.48" y="178.23" width="1734.42" height="545.35" rx="131.52"/><path class="cls-3" d="M3340.68,621.63a111.24,111.24,0,0,1-27.09-27.09c-15.16-21.63-18.38-42.89-20-54.17a147.14,147.14,0,0,1,1.43-47.05c5.28-28,14.6-34.74,21.39-55.61,1.17-3.6,20.07-64.55-13.18-99.63-29.32-30.92-79.74-21.26-85.2-20.13-11.93,8.44-31,19.35-55.63,21.73-39.21,3.8-50.25-18.15-93.58-18.68-38.66-.46-42.87,16.85-86,17.64-30.69.56-32.1-8.13-76.13-15.91-66.5-11.75-77.81,5.53-138.56-7.53-38.83-8.35-36.38-6.4-74.73-23-17-7.36-102.68-8.49-102.68-8.49a308.06,308.06,0,0,1-95.52,20c-29.1,1.33-57,2.9-88.4-10-29.83-12.24-32.05-24.79-56.12-34.74-20.5-8.47-53-13.48-103.56,6.23,0,0-125.38,38.18-255.21,0-24.24-7.13-98.38,28.51-215.29,0-18.48-4.51-97,2.85-101.22,49.9s0,316.51,0,316.51,4.27,48.48,67,64.16,1527,0,1527,0S3340.68,681.51,3340.68,621.63Z"/><path class="cls-1" d="M2572.56,2631.22h-121.9a80.2,80.2,0,0,1-80.19-80.2q11.19-236.83,12.11-473.7,1.1-279.6-12.11-559.25c0-5.34.53-33.75,23.48-56.71a80,80,0,0,1,56.71-23.49h121.9a80.2,80.2,0,0,1,80.2,80.2c-9.48,174.78-14.64,359-13.93,551.77.62,167.18,5.61,327.75,13.93,481.18.1,5.53,0,32.91-21.38,55.6C2608.05,2631.33,2577.5,2631.31,2572.56,2631.22Z"/><path class="cls-2" d="M2563.19,2612H2460c-37.47,0-67.85-34.75-67.85-77.61q9.46-229.2,10.25-458.42.93-270.57-10.25-541.21c0-5.17.45-32.66,19.87-54.88,12.28-14,29.24-22.73,48-22.73h103.15c37.47,0,67.85,34.75,67.85,77.61-8,169.14-12.39,347.4-11.78,534,.52,161.77,4.74,317.17,11.78,465.65.09,5.35,0,31.85-18.09,53.81A63.9,63.9,0,0,1,2563.19,2612Z"/></svg>