<svg width="360" height="750" viewBox="0 0 360 750" fill="none" xmlns="http://www.w3.org/2000/svg">
<path d="M288.938 0H-226.688C-264.188 0 -297 32.8125 -297 70.3125V679.688C-297 717.188 -264.188 750 -226.688 750H288.938C326.438 750 359.25 717.188 359.25 679.688V70.3125C359.25 32.8125 326.438 0 288.938 0ZM-109.5 637.5C-109.5 646.875 -118.875 656.25 -128.25 656.25H-184.5C-193.875 656.25 -203.25 646.875 -203.25 637.5V581.25C-203.25 571.875 -193.875 562.5 -184.5 562.5H-128.25C-118.875 562.5 -109.5 571.875 -109.5 581.25V637.5ZM-109.5 450C-109.5 459.375 -118.875 468.75 -128.25 468.75H-184.5C-193.875 468.75 -203.25 459.375 -203.25 450V393.75C-203.25 384.375 -193.875 375 -184.5 375H-128.25C-118.875 375 -109.5 384.375 -109.5 393.75V450ZM78 637.5C78 646.875 68.625 656.25 59.25 656.25H3C-6.375 656.25 -15.75 646.875 -15.75 637.5V581.25C-15.75 571.875 -6.375 562.5 3 562.5H59.25C68.625 562.5 78 571.875 78 581.25V637.5ZM78 450C78 459.375 68.625 468.75 59.25 468.75H3C-6.375 468.75 -15.75 459.375 -15.75 450V393.75C-15.75 384.375 -6.375 375 3 375H59.25C68.625 375 78 384.375 78 393.75V450ZM265.5 637.5C265.5 646.875 256.125 656.25 246.75 656.25H190.5C181.125 656.25 171.75 646.875 171.75 637.5V393.75C171.75 384.375 181.125 375 190.5 375H246.75C256.125 375 265.5 384.375 265.5 393.75V637.5ZM265.5 262.5C265.5 271.875 256.125 281.25 246.75 281.25H-184.5C-193.875 281.25 -203.25 271.875 -203.25 262.5V112.5C-203.25 103.125 -193.875 93.75 -184.5 93.75H246.75C256.125 93.75 265.5 103.125 265.5 112.5V262.5Z" fill="#EEEEEE"/>
</svg>
