<svg width="272" height="269" viewBox="0 0 272 269" fill="none" xmlns="http://www.w3.org/2000/svg">
<path d="M272 134.5C272 208.783 211.111 269 136 269C60.8891 269 0 208.783 0 134.5C0 60.2175 60.8891 0 136 0C211.111 0 272 60.2175 272 134.5ZM120.269 205.717L221.172 105.926C224.599 102.538 224.599 97.0434 221.172 93.6548L208.764 81.3833C205.338 77.9943 199.782 77.9943 196.355 81.3833L114.065 162.766L75.6451 124.77C72.2187 121.381 66.663 121.381 63.2362 124.77L50.8278 137.041C47.4015 140.43 47.4015 145.924 50.8278 149.313L107.86 205.716C111.287 209.105 116.842 209.105 120.269 205.717V205.717Z" fill="#3A3A44"/>
</svg>
