<svg width="15" height="15" viewBox="0 0 15 15" fill="none" xmlns="http://www.w3.org/2000/svg">
<path d="M13.9137 5.46296C13.669 5.21952 13.2732 5.22061 13.0298 5.46533L5.51651 13.0192C4.54176 13.994 2.95861 13.994 1.98203 13.0179C1.00619 12.0416 1.00619 10.4584 1.98215 9.48248L9.71783 1.70617C10.3264 1.09763 11.3158 1.09763 11.9261 1.70749C12.5363 2.31764 12.5363 3.30692 11.926 3.91725L5.51769 10.3255C5.51728 10.3259 5.51692 10.3264 5.51651 10.3268C5.27238 10.5696 4.87783 10.5692 4.63419 10.3256C4.39014 10.0816 4.39014 9.68601 4.63419 9.44197L7.72742 6.34809C7.97147 6.10399 7.97144 5.70824 7.72733 5.46419C7.48322 5.22014 7.08747 5.22017 6.84343 5.46427L3.75023 8.55809C3.01805 9.29026 3.01805 10.4773 3.75028 11.2095C4.48249 11.9417 5.6695 11.9417 6.40174 11.2095C6.40259 11.2086 6.40326 11.2077 6.40408 11.2069L12.8099 4.8011C13.9083 3.70262 13.9083 1.92186 12.8099 0.823377C11.7112 -0.274459 9.93059 -0.274459 8.83275 0.823377L1.09707 8.59975C-0.365867 10.0627 -0.365867 12.4371 1.09813 13.9018C2.56309 15.366 4.93754 15.366 6.40162 13.902L13.9161 6.34686C14.1595 6.10211 14.1584 5.70639 13.9137 5.46296Z" fill="#C4C4C4"/>
</svg>
