<svg width="12" height="12" viewBox="0 0 12 12" fill="none" xmlns="http://www.w3.org/2000/svg">
<path d="M11.131 4.37037C10.9352 4.17562 10.6186 4.17649 10.4238 4.37226L4.41321 10.4154C3.6334 11.1952 2.36689 11.1952 1.58563 10.4143C0.804955 9.63327 0.804955 8.36675 1.58572 7.58599L7.77427 1.36493C8.26112 0.878104 9.05264 0.878104 9.5409 1.36599C10.029 1.85411 10.029 2.64554 9.54079 3.1338L4.41415 8.26039C4.41382 8.26072 4.41354 8.2611 4.41321 8.26142C4.2179 8.45565 3.90226 8.4554 3.70735 8.26049C3.51211 8.06525 3.51211 7.74881 3.70735 7.55357L6.18194 5.07847C6.37717 4.88319 6.37715 4.56659 6.18187 4.37135C5.98658 4.17611 5.66998 4.17613 5.47474 4.37142L3.00018 6.84647C2.41444 7.43221 2.41444 8.38182 3.00023 8.96759C3.58599 9.55335 4.5356 9.55335 5.12139 8.96759C5.12207 8.96691 5.12261 8.96618 5.12326 8.9655L10.2479 3.84088C11.1267 2.96209 11.1267 1.53749 10.2479 0.658701C9.36899 -0.219567 7.94447 -0.219567 7.0662 0.658701L0.877659 6.8798C-0.292694 8.05015 -0.292694 9.94969 0.878503 11.1215C2.05047 12.2928 3.95003 12.2928 5.1213 11.1216L11.1329 5.07749C11.3276 4.88169 11.3267 4.56511 11.131 4.37037Z" fill="#F59552"/>
</svg>
