<svg id="Layer_1" data-name="Layer 1" xmlns="http://www.w3.org/2000/svg" xmlns:xlink="http://www.w3.org/1999/xlink" viewBox="0 0 1500 1500"><defs><style>.cls-1{fill:#3a3a44;}.cls-2{fill:#fff;fill-rule:evenodd;}.cls-3{fill:url(#linear-gradient);}.cls-4{fill:url(#linear-gradient-2);}</style><linearGradient id="linear-gradient" x1="750.52" y1="402.71" x2="750.52" y2="1048" gradientUnits="userSpaceOnUse"><stop offset="0" stop-color="#fedca1"/><stop offset="0.33" stop-color="#feda9e"/><stop offset="0.53" stop-color="#fed196"/><stop offset="0.69" stop-color="#fec388"/><stop offset="0.84" stop-color="#fdb074"/><stop offset="0.97" stop-color="#fd965a"/><stop offset="1" stop-color="#fd8f52"/></linearGradient><linearGradient id="linear-gradient-2" x1="749.98" y1="150.23" x2="749.98" y2="1048.44" xlink:href="#linear-gradient"/></defs><rect class="cls-1" width="1500" height="1500"/><path class="cls-2" d="M1314.29,1160.21a32.26,32.26,0,0,0,5.31.21,31.93,31.93,0,0,0,3.75.2h7.08a23.26,23.26,0,0,1,3.35-.41q14.58-1.44,22.85-10.5t8.27-22.85q0-11.1-5.11-17.9-5.73-7.61-12.81-8.32c-4.73-.5-8.44-.74-11.13-.74h-21.56Zm0,72.85-8.66-.82-8.68.62V1092.09h35.26q28.76,0,39.79,7.41t11,26.34q0,18.11-10.64,28.2-9.86,9.26-31.52,13.79a37.19,37.19,0,0,1-6.89.81c-2.89.14-4.53.22-4.93.22-3,0-5.7-.08-8.07-.22s-4.59-.26-6.69-.4ZM1164,1170.77q0,28.39,9.08,40.92,10,13.95,34.45,14,22.28,0,32.89-15.8,9.66-14.41,9.66-41.09v-76.67l5.51.62,5.52-.62v81.81q0,29.79-15.46,45.51t-42.05,15.71q-27.57,0-42.74-14.37-8.28-7.82-11.62-21.4a105.37,105.37,0,0,1-2.56-25v-82.22l8.66.62,8.66-.62Zm-191.62-8.39q0-33.09,21.07-53.66,20.28-19.68,51.79-19.72,30.72,0,51.21,16.64,23.44,19.14,23.44,53.64,0,34.13-20.88,55t-54.16,20.85q-32.88,0-52.68-19.82T972.38,1162.38Zm115.8-46.66a48.56,48.56,0,0,0-18-14.79,52.55,52.55,0,0,0-23-5.14q-25.79,0-40.66,18.81t-14.88,50.24q0,30.2,15.76,47.47,14.77,16,38,16,27.76,0,43.13-25.08a79.14,79.14,0,0,0,12-42.32,107.19,107.19,0,0,0-2.57-24.77A55.08,55.08,0,0,0,1088.18,1115.72Zm-226.69-23.63h41.75q22.46,0,33.09,7.69T947,1123.27q0,16.62-12.6,27.09-10.44,8.64-27.77,11.9l40.37,54,9.6,11.59,3.8,5.17-11.36-.82-11.19.62-12.41-18-23.32-31.57-15.77-19.41h-7.5v68.95l-8.66-.62-8.66.62Zm17.32,64.21H888.9c2.92,0,5.61-.06,8.1-.21a44,44,0,0,0,7.32-1,34.15,34.15,0,0,0,18.19-10.16c4.76-5.11,7.13-11.52,7.13-19.17q0-22.12-21.77-25.84a73.35,73.35,0,0,0-10.28-.6H878.81Zm-55.34-39.52A53.41,53.41,0,0,0,803.68,1102a60.41,60.41,0,0,0-24.53-5.15q-25.8,0-41.26,17t-15.46,47.58q0,31.23,15.07,48.59t43.82,17.36a75.54,75.54,0,0,0,16.26-1.75,56.73,56.73,0,0,0,14.47-5.21v-52.72l8.67.62,8.66-.62v58.08a157.64,157.64,0,0,1-53.56,9.42q-35.87,0-55-20.75-17.72-19.33-17.73-52,0-35,21.86-54.69,20.88-18.68,55-18.69,19.32,0,34.47,4.73a61.56,61.56,0,0,1,15.76,7.2c-.53,1.52-1.22,3.78-2.07,6.81s-1.67,6-2.46,9Zm-272,88.29c4.24,7.07,8.6,12.26,13.1,15.51q7.92,5.7,19,5.69a25.33,25.33,0,0,0,19.71-8.75,30.64,30.64,0,0,0,7.84-21.25q0-15.6-16-24.26-15-6.73-29.73-13.76-16-10.08-16-29.81c0-12.57,4.33-22.47,13-29.56q12-9.87,30.72-9.88a48.67,48.67,0,0,1,15.37,2.47,34.53,34.53,0,0,1,12.8,7.41q-1.39,3.28-2.37,6.18-.18.62-2.95,10.69h-2a28,28,0,0,0-9.36-13.27,24.46,24.46,0,0,0-15.06-4.63,25,25,0,0,0-17.63,6.69q-7.18,6.69-7.18,17.35c0,10.44,5.3,18.5,15.94,24.26q15,7,29.95,13.75,16.14,9.88,16.14,28.37,0,21.54-14.19,34.54-13.37,12.29-34.45,12.31a56.14,56.14,0,0,1-17.74-3.25c-6.43-2.2-11.22-5-14.38-8.61a59.86,59.86,0,0,0,2.05-8.27c.39-2.51.86-5.83,1.31-9.92Zm-131.57-34.3q0,28.39,9.06,40.92,10,13.95,34.47,14,22.24,0,32.89-15.8,9.66-14.41,9.65-41.09v-76.67l5.52.62,5.51-.62v81.81q0,29.79-15.45,45.51t-42.06,15.71q-27.58,0-42.74-14.37-8.26-7.82-11.62-21.4c-1.71-6.83-2.55-15.2-2.55-25v-82.22l8.66.62,8.66-.62Zm-112.46-10.56a32.34,32.34,0,0,0,5.32.21,31.87,31.87,0,0,0,3.74.2h7.09a23.33,23.33,0,0,1,3.34-.41q14.58-1.44,22.85-10.5t8.28-22.85c0-7.4-1.72-13.36-5.12-17.9q-5.71-7.61-12.81-8.32c-4.72-.5-8.44-.74-11.13-.74H307.45Zm0,72.85-8.66-.82-8.67.62V1092.09h35.26q28.75,0,39.78,7.41t11,26.34q0,18.11-10.64,28.2-9.84,9.26-31.51,13.79a37.2,37.2,0,0,1-6.9.81c-2.89.14-4.52.22-4.91.22-3,0-5.72-.08-8.08-.22s-4.6-.26-6.7-.4Zm-188.69-70.68q0-33.09,21.07-53.66Q160.13,1089,191.65,1089q30.72,0,51.2,16.64,23.43,19.14,23.44,53.64,0,34.13-20.88,55t-54.16,20.85q-32.9,0-52.68-19.82T118.76,1162.38Zm115.82-46.66a48.67,48.67,0,0,0-18-14.79,52.58,52.58,0,0,0-23-5.14q-25.8,0-40.66,18.81t-14.86,50.24q0,30.2,15.74,47.47,14.77,16,38,16,27.76,0,43.13-25.08a79.23,79.23,0,0,0,12-42.32,108.34,108.34,0,0,0-2.56-24.77A55.11,55.11,0,0,0,234.58,1115.72Z"/><path id="Left" class="cls-3" d="M1432.05,588.8l-111-186.09L1016.69,588.8v66.13l304.37-154.62,111,154.77Zm0,96.37-111-149.54L1016.69,685.17v66.12l304.37-118,111,118.21Zm0,91.59-111-103-304.37,103v73l304.37-80.12,111,80.25Zm0,100.1-111-71.4-304.37,71.4v72.31l304.37-45.78,111,45.88Zm0,98.52-111-30.34-304.37,30.34V1048h415.36ZM69,984.82,212.34,960,484,984.82V1048H69ZM69,902l143.34-61.62L484,902v62.89L212.47,925,69,965Zm0-79L212.34,729,484,823v60.46L212.47,808.7,69,883.55Zm0-86.29L212.34,608.73,484,736.68v66.13l-271.53-111L69,803Z"/><path class="cls-2" d="M1361.55,1342.47h-4.93v-44.63l-1,5a22.47,22.47,0,0,1-.85,2.61l-14,37h-7.24v-47h4.93v43.58c.08-.31.42-1.58,1-3.79.26-.87.54-1.76.87-2.68l14-37.11h7.26Zm-42.89,0h-4.93v-22.69h-17.3v22.69h-4.93v-47h4.93v19.56h17.3v-19.56h4.93Zm-48.26-18.2-5.81-25-6,25Zm10.11,18.2h-5.45l-3.56-13.5h-14.16l-3.3,13.5h-5.49l12.79-47H1268Zm-39.64,0h-5.59l-9.66-19.78-9.75,19.78h-5.54l12.43-24.15-12.08-22.81h5.53l9.42,18.32,9.44-18.32h5.45l-12,22.75Zm-48.26-18.2-5.82-25-6,25Zm10.11,18.2h-5.46l-3.55-13.5h-14.17l-3.29,13.5h-5.5l12.8-47h6.63Zm-39.9-33.72c0-3.23-.84-5.51-2.56-6.85-1.45-1.14-3.81-1.7-7-1.7h-6.33v17.67h4.89c3.89,0,6.58-.49,8.09-1.49C1161.85,1315.07,1162.82,1312.54,1162.82,1308.75Zm5.19,0q0,13.82-14.53,13.83h-6.58v19.89H1142v-47h12.5Q1168,1295.51,1168,1308.75Zm-37.52-8.55h-11.62v42.27h-4.93V1300.2h-11.68v-4.69h28.23Zm-36.59,25.31q0,18.09-12.67,18.07-11.06,0-13.49-13.69a67.67,67.67,0,0,1-.81-11.49q0-23.82,14.18-23.81a11.49,11.49,0,0,1,9.6,4.37q3.19,4.05,3.19,10.63h-5q0-10.3-8.06-10.31c-3.75,0-6.28,2.4-7.62,7.18a46.92,46.92,0,0,0-1.12,11.81q0,8.81.94,12.72c1.25,5.27,3.84,7.9,7.8,7.9q8.06,0,8.06-13.38Zm-44.08-1.24-5.8-25-6.06,25Zm10.11,18.2h-5.45l-3.56-13.5h-14.16l-3.29,13.5H1028l12.81-47h6.6Zm-61.5-13.5c0-5.78-2.74-8.67-8.27-8.67h-7v17.48h7.45c2.81,0,4.8-.73,6-2.19S998.43,1331.93,998.43,1329Zm-1.24-21.39q0-7.38-7.34-7.38h-6.7v15.39h6.27Q997.19,1315.59,997.19,1307.58Zm6.43,21.45q0,13.44-13,13.44H978.21v-47H990c3.83,0,6.8,1,8.93,2.85s3.44,5,3.44,8.88c0,5.66-2.19,9.07-6.56,10.26a8.25,8.25,0,0,1,5.87,4.16A14,14,0,0,1,1003.62,1329Zm-59-.06q0-8.67-8.27-8.67h-7v17.48h7.46q4.19,0,6-2.19C944,1334.13,944.62,1331.93,944.62,1329Zm-1.25-21.39q0-7.38-7.34-7.38h-6.7v15.39h6.26Q943.38,1315.59,943.37,1307.58Zm6.44,21.45q0,13.44-13,13.44H924.4v-47h11.8c3.82,0,6.8,1,8.92,2.85,2.29,2,3.43,5,3.43,8.88,0,5.66-2.18,9.07-6.54,10.26a8.24,8.24,0,0,1,5.86,4.16A14,14,0,0,1,949.81,1329Zm-44.33-10.89c0-5.27-.47-9.28-1.38-12.07-1.54-4.52-4.34-6.79-8.43-6.79s-6.66,2.28-8.11,6.86q-1.38,4.17-1.38,11.93c0,7.48.56,12.67,1.69,15.54,1.38,3.52,4,5.28,7.93,5.28a7.86,7.86,0,0,0,7.93-5.28Q905.48,1329.23,905.48,1318.14Zm5.18.78q0,15.93-5.13,21.14c-2.32,2.35-5.58,3.52-9.73,3.52q-8.94,0-12.3-7.43-2.49-5.48-2.5-17.23,0-10.58,2.5-16.25,3.5-8.09,12.3-8.08c5.88,0,10,2.69,12.37,8.08Q910.66,1308.36,910.66,1318.92Zm-43.27,23.55h-4.93l.13-44.63-1.7,6.27-9.42,38.36h-5.93l-10.73-44.63v44.63h-4.95v-47h8.82l8.82,36.65a59.27,59.27,0,0,1,.92,6.93c.25-1.58.64-3.9,1.22-7l8.93-36.58h8.82Zm-56.25-24.33c0-5.27-.46-9.28-1.38-12.07q-2.29-6.78-8.42-6.79-5.94,0-8.11,6.86-1.38,4.17-1.38,11.93c0,7.48.56,12.67,1.69,15.54,1.38,3.52,4,5.28,7.93,5.28a7.87,7.87,0,0,0,7.93-5.28Q811.14,1329.23,811.14,1318.14Zm5.19.78q0,15.93-5.13,21.14c-2.32,2.35-5.58,3.52-9.73,3.52q-8.94,0-12.3-7.43c-1.66-3.65-2.51-9.4-2.51-17.23,0-7.05.85-12.46,2.51-16.25q3.48-8.09,12.3-8.08t12.36,8.08Q816.34,1308.36,816.33,1318.92Zm-48.45,18.86V1300.2h-14v12.2q0,16.18-4.31,25.38Zm8.56,15.66h-4.82v-11H746v11h-4.81v-15.66h3.07a36.23,36.23,0,0,0,3.93-12.72,144,144,0,0,0,.8-17.55v-12h23.87v42.27h3.62Zm-61.63-11h-4.93v-44.63l-1,5a22.47,22.47,0,0,1-.85,2.61l-14,37h-7.25v-47h4.93v43.58c.09-.31.43-1.58,1-3.79.25-.87.53-1.76.85-2.68l14-37.11h7.26Zm-60.5-33.72c0-3.23-.85-5.51-2.57-6.85-1.46-1.14-3.8-1.7-7-1.7h-6.32v17.67h4.89c3.89,0,6.58-.49,8.08-1.49C653.34,1315.07,654.31,1312.54,654.31,1308.75Zm5.18,0q0,13.82-14.52,13.83h-6.58v19.89h-4.93v-47h12.48Q659.49,1295.51,659.49,1308.75Zm-41.27,33.72h-4.93v-44.63l-1,5a22.47,22.47,0,0,1-.85,2.61l-14.05,37h-7.24v-47h4.93v43.58c.08-.31.43-1.58,1-3.79.24-.87.52-1.76.85-2.68l14-37.11h7.24Zm-39-42.27H567.65v42.27h-4.93V1300.2H551v-4.69h28.23Zm-42.09,8.55c0-3.23-.84-5.51-2.56-6.85-1.45-1.14-3.81-1.7-7-1.7h-6.33v17.67h4.89c3.89,0,6.58-.49,8.09-1.49C536.21,1315.07,537.18,1312.54,537.18,1308.75Zm5.18,0q0,13.82-14.52,13.83h-6.58v19.89h-4.93v-47h12.5Q542.36,1295.51,542.36,1308.75Zm-47.51,15.52-5.8-25-6.06,25Zm10.11,18.2h-5.44L496,1329H481.79l-3.29,13.5H473l12.81-47h6.62ZM460.45,1329c0-5.78-2.74-8.67-8.26-8.67h-7v17.48h7.47q4.2,0,6-2.19C459.85,1334.13,460.45,1331.93,460.45,1329Zm-1.24-21.39q0-7.38-7.33-7.38h-6.73v15.39h6.29Q459.21,1315.59,459.21,1307.58Zm6.43,21.45q0,13.44-13,13.44H440.22v-47H452c3.83,0,6.8,1,8.93,2.85,2.28,2,3.44,5,3.44,8.88,0,5.66-2.2,9.07-6.57,10.26a8.31,8.31,0,0,1,5.88,4.16A14,14,0,0,1,465.64,1329Zm-36.26,13.44h-5.82l-12-23.22-5.31,6.85v16.37h-4.93v-47h4.93v24.12l16.4-24.12h6.27l-14.37,19.64Zm-54.15-42.27H363.62v42.27h-4.93V1300.2H347v-4.69h28.21Zm-39.46,42.27h-4.93v-22.69H313.55v22.69h-4.93v-47h4.93v19.56h17.29v-19.56h4.93Zm-46.07-24.33c0-5.27-.45-9.28-1.37-12.07-1.55-4.52-4.35-6.79-8.44-6.79q-5.91,0-8.11,6.86-1.36,4.17-1.37,11.93c0,7.48.57,12.67,1.68,15.54q2.07,5.28,7.93,5.28a7.84,7.84,0,0,0,7.93-5.28Q289.71,1329.23,289.7,1318.14Zm5.19.78q0,15.93-5.12,21.14c-2.34,2.35-5.58,3.52-9.75,3.52q-8.91,0-12.3-7.43-2.49-5.48-2.49-17.23,0-10.58,2.49-16.25,3.51-8.09,12.3-8.08t12.37,8.08Q294.88,1308.36,294.89,1318.92Zm-43.27,23.55h-4.93l.13-44.63-1.69,6.27-9.42,38.36h-6L219,1297.84v44.63H214.1v-47h8.8l8.82,36.65a57.15,57.15,0,0,1,.92,6.93c.25-1.58.66-3.9,1.22-7l8.93-36.58h8.83Zm-50.56,0H178.45v-47H201v4.69h-17.6v15.53h16.48v4.69H183.38v17.36h17.68Zm-40-33.72c0-3.23-.86-5.51-2.56-6.85-1.47-1.14-3.81-1.7-7-1.7h-6.32v17.67h4.88c3.89,0,6.58-.49,8.09-1.49C160.12,1315.07,161.09,1312.54,161.09,1308.75Zm5.18,0q0,13.82-14.52,13.83h-6.57v19.89h-4.93v-47h12.48Q166.27,1295.51,166.27,1308.75Z"/><path id="Center" class="cls-4" d="M560.76,271v777.41H507.17v-740Zm86.41-60.39v837.8H593.58V248.08Zm86.4-60.41v898.21H680V187.69ZM820,187.69v860.75H766.39V150.23Zm86.4,60.39v800.36H852.79V210.64Zm86.42,60.4v740h-53.6V271Z"/></svg>